<?xml version="1.0" encoding="utf-8" standalone="no"?>
<!DOCTYPE svg PUBLIC "-//W3C//DTD SVG 1.1//EN"
  "http://www.w3.org/Graphics/SVG/1.1/DTD/svg11.dtd">
<svg xmlns:xlink="http://www.w3.org/1999/xlink" width="460.8pt" height="345.6pt" viewBox="0 0 460.8 345.6" xmlns="http://www.w3.org/2000/svg" version="1.1">
 <metadata>
  <rdf:RDF xmlns:dc="http://purl.org/dc/elements/1.1/" xmlns:cc="http://creativecommons.org/ns#" xmlns:rdf="http://www.w3.org/1999/02/22-rdf-syntax-ns#">
   <cc:Work>
    <dc:type rdf:resource="http://purl.org/dc/dcmitype/StillImage"/>
    <dc:date>2024-10-20T03:20:48.088960</dc:date>
    <dc:format>image/svg+xml</dc:format>
    <dc:creator>
     <cc:Agent>
      <dc:title>Matplotlib v3.9.0, https://matplotlib.org/</dc:title>
     </cc:Agent>
    </dc:creator>
   </cc:Work>
  </rdf:RDF>
 </metadata>
 <defs>
  <style type="text/css">*{stroke-linejoin: round; stroke-linecap: butt}</style>
 </defs>
 <g id="figure_1">
  <g id="patch_1">
   <path d="M 0 345.6 
L 460.8 345.6 
L 460.8 0 
L 0 0 
z
" style="fill: #ffffff"/>
  </g>
  <g id="axes_1">
   <g id="patch_2">
    <path d="M 57.6 307.584 
L 414.72 307.584 
L 414.72 41.472 
L 57.6 41.472 
z
" style="fill: #ffffff"/>
   </g>
   <g id="patch_3">
    <path d="M -49.502415 307.584 
L -20.153327 307.584 
L -20.153327 307.496916 
L -49.502415 307.496916 
z
" clip-path="url(#p3010d4d52b)" style="fill: #1f77b4"/>
   </g>
   <g id="patch_4">
    <path d="M -20.153327 307.584 
L 9.195761 307.584 
L 9.195761 306.980521 
L -20.153327 306.980521 
z
" clip-path="url(#p3010d4d52b)" style="fill: #1f77b4"/>
   </g>
   <g id="patch_5">
    <path d="M 9.195761 307.584 
L 38.544848 307.584 
L 38.544848 305.057028 
L 9.195761 305.057028 
z
" clip-path="url(#p3010d4d52b)" style="fill: #1f77b4"/>
   </g>
   <g id="patch_6">
    <path d="M 38.544848 307.584 
L 67.893925 307.584 
L 67.893925 299.390434 
L 38.544848 299.390434 
z
" clip-path="url(#p3010d4d52b)" style="fill: #1f77b4"/>
   </g>
   <g id="patch_7">
    <path d="M 67.893925 307.584 
L 97.243003 307.584 
L 97.243003 284.046787 
L 67.893925 284.046787 
z
" clip-path="url(#p3010d4d52b)" style="fill: #1f77b4"/>
   </g>
   <g id="patch_8">
    <path d="M 97.243003 307.584 
L 126.59209 307.584 
L 126.59209 253.179233 
L 97.243003 253.179233 
z
" clip-path="url(#p3010d4d52b)" style="fill: #1f77b4"/>
   </g>
   <g id="patch_9">
    <path d="M 126.59209 307.584 
L 155.941178 307.584 
L 155.941178 203.357851 
L 126.59209 203.357851 
z
" clip-path="url(#p3010d4d52b)" style="fill: #1f77b4"/>
   </g>
   <g id="patch_10">
    <path d="M 155.941178 307.584 
L 185.29026 307.584 
L 185.29026 143.312436 
L 155.941178 143.312436 
z
" clip-path="url(#p3010d4d52b)" style="fill: #1f77b4"/>
   </g>
   <g id="patch_11">
    <path d="M 185.29026 307.584 
L 214.639346 307.584 
L 214.639346 87.871835 
L 185.29026 87.871835 
z
" clip-path="url(#p3010d4d52b)" style="fill: #1f77b4"/>
   </g>
   <g id="patch_12">
    <path d="M 214.639346 307.584 
L 243.988431 307.584 
L 243.988431 56.984408 
L 214.639346 56.984408 
z
" clip-path="url(#p3010d4d52b)" style="fill: #1f77b4"/>
   </g>
   <g id="patch_13">
    <path d="M 243.988431 307.584 
L 273.337516 307.584 
L 273.337516 68.606343 
L 243.988431 68.606343 
z
" clip-path="url(#p3010d4d52b)" style="fill: #1f77b4"/>
   </g>
   <g id="patch_14">
    <path d="M 273.337516 307.584 
L 302.686601 307.584 
L 302.686601 112.709194 
L 273.337516 112.709194 
z
" clip-path="url(#p3010d4d52b)" style="fill: #1f77b4"/>
   </g>
   <g id="patch_15">
    <path d="M 302.686601 307.584 
L 332.035683 307.584 
L 332.035683 177.906296 
L 302.686601 177.906296 
z
" clip-path="url(#p3010d4d52b)" style="fill: #1f77b4"/>
   </g>
   <g id="patch_16">
    <path d="M 332.035683 307.584 
L 361.384771 307.584 
L 361.384771 231.852748 
L 332.035683 231.852748 
z
" clip-path="url(#p3010d4d52b)" style="fill: #1f77b4"/>
   </g>
   <g id="patch_17">
    <path d="M 361.384771 307.584 
L 390.733859 307.584 
L 390.733859 270.267616 
L 361.384771 270.267616 
z
" clip-path="url(#p3010d4d52b)" style="fill: #1f77b4"/>
   </g>
   <g id="patch_18">
    <path d="M 390.733859 307.584 
L 420.082947 307.584 
L 420.082947 291.371043 
L 390.733859 291.371043 
z
" clip-path="url(#p3010d4d52b)" style="fill: #1f77b4"/>
   </g>
   <g id="patch_19">
    <path d="M 420.082947 307.584 
L 449.432013 307.584 
L 449.432013 302.461301 
L 420.082947 302.461301 
z
" clip-path="url(#p3010d4d52b)" style="fill: #1f77b4"/>
   </g>
   <g id="patch_20">
    <path d="M 449.432013 307.584 
L 478.781101 307.584 
L 478.781101 306.106623 
L 449.432013 306.106623 
z
" clip-path="url(#p3010d4d52b)" style="fill: #1f77b4"/>
   </g>
   <g id="patch_21">
    <path d="M 478.781101 307.584 
L 508.130189 307.584 
L 508.130189 307.40372 
L 478.781101 307.40372 
z
" clip-path="url(#p3010d4d52b)" style="fill: #1f77b4"/>
   </g>
   <g id="patch_22">
    <path d="M 508.130189 307.584 
L 537.479276 307.584 
L 537.479276 307.522888 
L 508.130189 307.522888 
z
" clip-path="url(#p3010d4d52b)" style="fill: #1f77b4"/>
   </g>
   <g id="matplotlib.axis_1">
    <g id="xtick_1">
     <g id="line2d_1">
      <defs>
       <path id="m57fba24b48" d="M 0 0 
L 0 3.5 
" style="stroke: #000000; stroke-width: 0.8"/>
      </defs>
      <g>
       <use xlink:href="#m57fba24b48" x="57.6" y="307.584" style="stroke: #000000; stroke-width: 0.8"/>
      </g>
     </g>
     <g id="text_1">
      <!-- −2.0 -->
      <g transform="translate(45.458594 322.182437) scale(0.1 -0.1)">
       <defs>
        <path id="DejaVuSans-2212" d="M 678 2272 
L 4684 2272 
L 4684 1741 
L 678 1741 
L 678 2272 
z
" transform="scale(0.015625)"/>
        <path id="DejaVuSans-32" d="M 1228 531 
L 3431 531 
L 3431 0 
L 469 0 
L 469 531 
Q 828 903 1448 1529 
Q 2069 2156 2228 2338 
Q 2531 2678 2651 2914 
Q 2772 3150 2772 3378 
Q 2772 3750 2511 3984 
Q 2250 4219 1831 4219 
Q 1534 4219 1204 4116 
Q 875 4013 500 3803 
L 500 4441 
Q 881 4594 1212 4672 
Q 1544 4750 1819 4750 
Q 2544 4750 2975 4387 
Q 3406 4025 3406 3419 
Q 3406 3131 3298 2873 
Q 3191 2616 2906 2266 
Q 2828 2175 2409 1742 
Q 1991 1309 1228 531 
z
" transform="scale(0.015625)"/>
        <path id="DejaVuSans-2e" d="M 684 794 
L 1344 794 
L 1344 0 
L 684 0 
L 684 794 
z
" transform="scale(0.015625)"/>
        <path id="DejaVuSans-30" d="M 2034 4250 
Q 1547 4250 1301 3770 
Q 1056 3291 1056 2328 
Q 1056 1369 1301 889 
Q 1547 409 2034 409 
Q 2525 409 2770 889 
Q 3016 1369 3016 2328 
Q 3016 3291 2770 3770 
Q 2525 4250 2034 4250 
z
M 2034 4750 
Q 2819 4750 3233 4129 
Q 3647 3509 3647 2328 
Q 3647 1150 3233 529 
Q 2819 -91 2034 -91 
Q 1250 -91 836 529 
Q 422 1150 422 2328 
Q 422 3509 836 4129 
Q 1250 4750 2034 4750 
z
" transform="scale(0.015625)"/>
       </defs>
       <use xlink:href="#DejaVuSans-2212"/>
       <use xlink:href="#DejaVuSans-32" x="83.789062"/>
       <use xlink:href="#DejaVuSans-2e" x="147.412109"/>
       <use xlink:href="#DejaVuSans-30" x="179.199219"/>
      </g>
     </g>
    </g>
    <g id="xtick_2">
     <g id="line2d_2">
      <g>
       <use xlink:href="#m57fba24b48" x="102.24" y="307.584" style="stroke: #000000; stroke-width: 0.8"/>
      </g>
     </g>
     <g id="text_2">
      <!-- −1.5 -->
      <g transform="translate(90.098594 322.182437) scale(0.1 -0.1)">
       <defs>
        <path id="DejaVuSans-31" d="M 794 531 
L 1825 531 
L 1825 4091 
L 703 3866 
L 703 4441 
L 1819 4666 
L 2450 4666 
L 2450 531 
L 3481 531 
L 3481 0 
L 794 0 
L 794 531 
z
" transform="scale(0.015625)"/>
        <path id="DejaVuSans-35" d="M 691 4666 
L 3169 4666 
L 3169 4134 
L 1269 4134 
L 1269 2991 
Q 1406 3038 1543 3061 
Q 1681 3084 1819 3084 
Q 2600 3084 3056 2656 
Q 3513 2228 3513 1497 
Q 3513 744 3044 326 
Q 2575 -91 1722 -91 
Q 1428 -91 1123 -41 
Q 819 9 494 109 
L 494 744 
Q 775 591 1075 516 
Q 1375 441 1709 441 
Q 2250 441 2565 725 
Q 2881 1009 2881 1497 
Q 2881 1984 2565 2268 
Q 2250 2553 1709 2553 
Q 1456 2553 1204 2497 
Q 953 2441 691 2322 
L 691 4666 
z
" transform="scale(0.015625)"/>
       </defs>
       <use xlink:href="#DejaVuSans-2212"/>
       <use xlink:href="#DejaVuSans-31" x="83.789062"/>
       <use xlink:href="#DejaVuSans-2e" x="147.412109"/>
       <use xlink:href="#DejaVuSans-35" x="179.199219"/>
      </g>
     </g>
    </g>
    <g id="xtick_3">
     <g id="line2d_3">
      <g>
       <use xlink:href="#m57fba24b48" x="146.88" y="307.584" style="stroke: #000000; stroke-width: 0.8"/>
      </g>
     </g>
     <g id="text_3">
      <!-- −1.0 -->
      <g transform="translate(134.738594 322.182437) scale(0.1 -0.1)">
       <use xlink:href="#DejaVuSans-2212"/>
       <use xlink:href="#DejaVuSans-31" x="83.789062"/>
       <use xlink:href="#DejaVuSans-2e" x="147.412109"/>
       <use xlink:href="#DejaVuSans-30" x="179.199219"/>
      </g>
     </g>
    </g>
    <g id="xtick_4">
     <g id="line2d_4">
      <g>
       <use xlink:href="#m57fba24b48" x="191.52" y="307.584" style="stroke: #000000; stroke-width: 0.8"/>
      </g>
     </g>
     <g id="text_4">
      <!-- −0.5 -->
      <g transform="translate(179.378594 322.182437) scale(0.1 -0.1)">
       <use xlink:href="#DejaVuSans-2212"/>
       <use xlink:href="#DejaVuSans-30" x="83.789062"/>
       <use xlink:href="#DejaVuSans-2e" x="147.412109"/>
       <use xlink:href="#DejaVuSans-35" x="179.199219"/>
      </g>
     </g>
    </g>
    <g id="xtick_5">
     <g id="line2d_5">
      <g>
       <use xlink:href="#m57fba24b48" x="236.16" y="307.584" style="stroke: #000000; stroke-width: 0.8"/>
      </g>
     </g>
     <g id="text_5">
      <!-- 0.0 -->
      <g transform="translate(228.208438 322.182437) scale(0.1 -0.1)">
       <use xlink:href="#DejaVuSans-30"/>
       <use xlink:href="#DejaVuSans-2e" x="63.623047"/>
       <use xlink:href="#DejaVuSans-30" x="95.410156"/>
      </g>
     </g>
    </g>
    <g id="xtick_6">
     <g id="line2d_6">
      <g>
       <use xlink:href="#m57fba24b48" x="280.8" y="307.584" style="stroke: #000000; stroke-width: 0.8"/>
      </g>
     </g>
     <g id="text_6">
      <!-- 0.5 -->
      <g transform="translate(272.848437 322.182437) scale(0.1 -0.1)">
       <use xlink:href="#DejaVuSans-30"/>
       <use xlink:href="#DejaVuSans-2e" x="63.623047"/>
       <use xlink:href="#DejaVuSans-35" x="95.410156"/>
      </g>
     </g>
    </g>
    <g id="xtick_7">
     <g id="line2d_7">
      <g>
       <use xlink:href="#m57fba24b48" x="325.44" y="307.584" style="stroke: #000000; stroke-width: 0.8"/>
      </g>
     </g>
     <g id="text_7">
      <!-- 1.0 -->
      <g transform="translate(317.488437 322.182437) scale(0.1 -0.1)">
       <use xlink:href="#DejaVuSans-31"/>
       <use xlink:href="#DejaVuSans-2e" x="63.623047"/>
       <use xlink:href="#DejaVuSans-30" x="95.410156"/>
      </g>
     </g>
    </g>
    <g id="xtick_8">
     <g id="line2d_8">
      <g>
       <use xlink:href="#m57fba24b48" x="370.08" y="307.584" style="stroke: #000000; stroke-width: 0.8"/>
      </g>
     </g>
     <g id="text_8">
      <!-- 1.5 -->
      <g transform="translate(362.128438 322.182437) scale(0.1 -0.1)">
       <use xlink:href="#DejaVuSans-31"/>
       <use xlink:href="#DejaVuSans-2e" x="63.623047"/>
       <use xlink:href="#DejaVuSans-35" x="95.410156"/>
      </g>
     </g>
    </g>
    <g id="xtick_9">
     <g id="line2d_9">
      <g>
       <use xlink:href="#m57fba24b48" x="414.72" y="307.584" style="stroke: #000000; stroke-width: 0.8"/>
      </g>
     </g>
     <g id="text_9">
      <!-- 2.0 -->
      <g transform="translate(406.768438 322.182437) scale(0.1 -0.1)">
       <use xlink:href="#DejaVuSans-32"/>
       <use xlink:href="#DejaVuSans-2e" x="63.623047"/>
       <use xlink:href="#DejaVuSans-30" x="95.410156"/>
      </g>
     </g>
    </g>
   </g>
   <g id="matplotlib.axis_2">
    <g id="ytick_1">
     <g id="line2d_10">
      <defs>
       <path id="mf8cfb71fde" d="M 0 0 
L -3.5 0 
" style="stroke: #000000; stroke-width: 0.8"/>
      </defs>
      <g>
       <use xlink:href="#mf8cfb71fde" x="57.6" y="307.584" style="stroke: #000000; stroke-width: 0.8"/>
      </g>
     </g>
     <g id="text_10">
      <!-- 0.0 -->
      <g transform="translate(34.696875 311.383219) scale(0.1 -0.1)">
       <use xlink:href="#DejaVuSans-30"/>
       <use xlink:href="#DejaVuSans-2e" x="63.623047"/>
       <use xlink:href="#DejaVuSans-30" x="95.410156"/>
      </g>
     </g>
    </g>
    <g id="ytick_2">
     <g id="line2d_11">
      <g>
       <use xlink:href="#mf8cfb71fde" x="57.6" y="257.360682" style="stroke: #000000; stroke-width: 0.8"/>
      </g>
     </g>
     <g id="text_11">
      <!-- 0.1 -->
      <g transform="translate(34.696875 261.1599) scale(0.1 -0.1)">
       <use xlink:href="#DejaVuSans-30"/>
       <use xlink:href="#DejaVuSans-2e" x="63.623047"/>
       <use xlink:href="#DejaVuSans-31" x="95.410156"/>
      </g>
     </g>
    </g>
    <g id="ytick_3">
     <g id="line2d_12">
      <g>
       <use xlink:href="#mf8cfb71fde" x="57.6" y="207.137363" style="stroke: #000000; stroke-width: 0.8"/>
      </g>
     </g>
     <g id="text_12">
      <!-- 0.2 -->
      <g transform="translate(34.696875 210.936582) scale(0.1 -0.1)">
       <use xlink:href="#DejaVuSans-30"/>
       <use xlink:href="#DejaVuSans-2e" x="63.623047"/>
       <use xlink:href="#DejaVuSans-32" x="95.410156"/>
      </g>
     </g>
    </g>
    <g id="ytick_4">
     <g id="line2d_13">
      <g>
       <use xlink:href="#mf8cfb71fde" x="57.6" y="156.914045" style="stroke: #000000; stroke-width: 0.8"/>
      </g>
     </g>
     <g id="text_13">
      <!-- 0.3 -->
      <g transform="translate(34.696875 160.713264) scale(0.1 -0.1)">
       <defs>
        <path id="DejaVuSans-33" d="M 2597 2516 
Q 3050 2419 3304 2112 
Q 3559 1806 3559 1356 
Q 3559 666 3084 287 
Q 2609 -91 1734 -91 
Q 1441 -91 1130 -33 
Q 819 25 488 141 
L 488 750 
Q 750 597 1062 519 
Q 1375 441 1716 441 
Q 2309 441 2620 675 
Q 2931 909 2931 1356 
Q 2931 1769 2642 2001 
Q 2353 2234 1838 2234 
L 1294 2234 
L 1294 2753 
L 1863 2753 
Q 2328 2753 2575 2939 
Q 2822 3125 2822 3475 
Q 2822 3834 2567 4026 
Q 2313 4219 1838 4219 
Q 1578 4219 1281 4162 
Q 984 4106 628 3988 
L 628 4550 
Q 988 4650 1302 4700 
Q 1616 4750 1894 4750 
Q 2613 4750 3031 4423 
Q 3450 4097 3450 3541 
Q 3450 3153 3228 2886 
Q 3006 2619 2597 2516 
z
" transform="scale(0.015625)"/>
       </defs>
       <use xlink:href="#DejaVuSans-30"/>
       <use xlink:href="#DejaVuSans-2e" x="63.623047"/>
       <use xlink:href="#DejaVuSans-33" x="95.410156"/>
      </g>
     </g>
    </g>
    <g id="ytick_5">
     <g id="line2d_14">
      <g>
       <use xlink:href="#mf8cfb71fde" x="57.6" y="106.690727" style="stroke: #000000; stroke-width: 0.8"/>
      </g>
     </g>
     <g id="text_14">
      <!-- 0.4 -->
      <g transform="translate(34.696875 110.489946) scale(0.1 -0.1)">
       <defs>
        <path id="DejaVuSans-34" d="M 2419 4116 
L 825 1625 
L 2419 1625 
L 2419 4116 
z
M 2253 4666 
L 3047 4666 
L 3047 1625 
L 3713 1625 
L 3713 1100 
L 3047 1100 
L 3047 0 
L 2419 0 
L 2419 1100 
L 313 1100 
L 313 1709 
L 2253 4666 
z
" transform="scale(0.015625)"/>
       </defs>
       <use xlink:href="#DejaVuSans-30"/>
       <use xlink:href="#DejaVuSans-2e" x="63.623047"/>
       <use xlink:href="#DejaVuSans-34" x="95.410156"/>
      </g>
     </g>
    </g>
    <g id="ytick_6">
     <g id="line2d_15">
      <g>
       <use xlink:href="#mf8cfb71fde" x="57.6" y="56.467409" style="stroke: #000000; stroke-width: 0.8"/>
      </g>
     </g>
     <g id="text_15">
      <!-- 0.5 -->
      <g transform="translate(34.696875 60.266627) scale(0.1 -0.1)">
       <use xlink:href="#DejaVuSans-30"/>
       <use xlink:href="#DejaVuSans-2e" x="63.623047"/>
       <use xlink:href="#DejaVuSans-35" x="95.410156"/>
      </g>
     </g>
    </g>
   </g>
   <g id="line2d_16">
    <path d="M 57.492853 297.292833 
L 61.9573 295.529983 
L 66.243168 293.606888 
L 70.529037 291.436632 
L 74.636328 289.105295 
L 78.565041 286.627492 
L 82.493753 283.890964 
L 86.422466 280.879974 
L 90.351179 277.57943 
L 94.279892 273.975227 
L 98.208605 270.054557 
L 102.137318 265.806147 
L 106.066031 261.220664 
L 109.994743 256.291069 
L 113.923456 251.012854 
L 118.030747 245.12036 
L 122.316616 238.565972 
L 126.602484 231.604487 
L 131.066931 223.93387 
L 135.888533 215.19363 
L 140.888713 205.66745 
L 146.424626 194.633886 
L 152.674851 181.668889 
L 160.710855 164.448233 
L 179.640108 123.661868 
L 185.533177 111.628962 
L 190.354779 102.267944 
L 194.640648 94.409025 
L 198.569361 87.654589 
L 202.140918 81.936099 
L 205.533897 76.913607 
L 208.748299 72.553901 
L 211.784122 68.815923 
L 214.641368 65.652706 
L 217.320036 63.013434 
L 219.820126 60.844956 
L 222.320216 58.969382 
L 224.641728 57.496125 
L 226.96324 56.28612 
L 229.106175 55.406287 
L 231.249109 54.756539 
L 233.392043 54.33864 
L 235.534977 54.153759 
L 237.677912 54.202404 
L 239.820846 54.484486 
L 241.96378 54.999165 
L 244.106715 55.745067 
L 246.249649 56.720093 
L 248.571161 58.031834 
L 250.892673 59.605151 
L 253.392763 61.586173 
L 255.892853 63.857374 
L 258.571521 66.603276 
L 261.428767 69.875817 
L 264.286013 73.487856 
L 267.321836 77.678697 
L 270.536238 82.488647 
L 274.107795 88.249286 
L 277.85793 94.72676 
L 281.965221 102.267944 
L 286.608245 111.273674 
L 291.965581 122.174795 
L 298.572961 136.15506 
L 310.3591 161.735484 
L 320.002304 182.42187 
L 326.609685 196.083577 
L 332.324176 207.400936 
L 337.502934 217.175191 
L 342.324536 225.81282 
L 346.967561 233.676341 
L 351.432007 240.796476 
L 355.717876 247.213277 
L 359.825167 252.972697 
L 363.932457 258.349673 
L 367.86117 263.137792 
L 371.789883 267.584386 
L 375.718596 271.697485 
L 379.647309 275.487231 
L 383.576022 278.965571 
L 387.504734 282.145902 
L 391.433447 285.042748 
L 395.36216 287.6715 
L 399.469451 290.150393 
L 403.576742 292.372295 
L 407.86261 294.437007 
L 412.327057 296.334522 
L 414.827147 297.292833 
L 414.827147 297.292833 
" clip-path="url(#p3010d4d52b)" style="fill: none; stroke: #ff7f0e; stroke-width: 1.5; stroke-linecap: square"/>
   </g>
   <g id="patch_23">
    <path d="M 57.6 307.584 
L 57.6 41.472 
" style="fill: none; stroke: #000000; stroke-width: 0.8; stroke-linejoin: miter; stroke-linecap: square"/>
   </g>
   <g id="patch_24">
    <path d="M 414.72 307.584 
L 414.72 41.472 
" style="fill: none; stroke: #000000; stroke-width: 0.8; stroke-linejoin: miter; stroke-linecap: square"/>
   </g>
   <g id="patch_25">
    <path d="M 57.6 307.584 
L 414.72 307.584 
" style="fill: none; stroke: #000000; stroke-width: 0.8; stroke-linejoin: miter; stroke-linecap: square"/>
   </g>
   <g id="patch_26">
    <path d="M 57.6 41.472 
L 414.72 41.472 
" style="fill: none; stroke: #000000; stroke-width: 0.8; stroke-linejoin: miter; stroke-linecap: square"/>
   </g>
  </g>
 </g>
 <defs>
  <clipPath id="p3010d4d52b">
   <rect x="57.6" y="41.472" width="357.12" height="266.112"/>
  </clipPath>
 </defs>
</svg>
